<svg width="18" height="19" viewBox="0 0 18 19" fill="none" xmlns="http://www.w3.org/2000/svg">
<path d="M3.6 4.71875C3.22594 4.71875 2.925 4.34258 2.925 3.875C2.925 3.40742 3.22594 3.03125 3.6 3.03125C3.97406 3.03125 4.275 3.40742 4.275 3.875C4.275 4.34258 3.97406 4.71875 3.6 4.71875ZM4.5 6.45195C5.29594 6.01953 5.85 5.02813 5.85 3.875C5.85 2.32109 4.84312 1.0625 3.6 1.0625C2.35687 1.0625 1.35 2.32109 1.35 3.875C1.35 5.02813 1.90406 6.01953 2.7 6.45195V8.375H0.9C0.402187 8.375 0 8.87773 0 9.5C0 10.1223 0.402187 10.625 0.9 10.625H8.1V12.548C7.30406 12.9805 6.75 13.9719 6.75 15.125C6.75 16.6789 7.75687 17.9375 9 17.9375C10.2431 17.9375 11.25 16.6789 11.25 15.125C11.25 13.9719 10.6959 12.9805 9.9 12.548V10.625H17.1C17.5978 10.625 18 10.1223 18 9.5C18 8.87773 17.5978 8.375 17.1 8.375H15.3V6.45195C16.0959 6.01953 16.65 5.02813 16.65 3.875C16.65 2.32109 15.6431 1.0625 14.4 1.0625C13.1569 1.0625 12.15 2.32109 12.15 3.875C12.15 5.02813 12.7041 6.01953 13.5 6.45195V8.375H4.5V6.45195ZM15.075 3.875C15.075 4.34258 14.7741 4.71875 14.4 4.71875C14.0259 4.71875 13.725 4.34258 13.725 3.875C13.725 3.40742 14.0259 3.03125 14.4 3.03125C14.7741 3.03125 15.075 3.40742 15.075 3.875ZM9 15.9688C8.62594 15.9688 8.325 15.5926 8.325 15.125C8.325 14.6574 8.62594 14.2812 9 14.2812C9.37406 14.2812 9.675 14.6574 9.675 15.125C9.675 15.5926 9.37406 15.9688 9 15.9688Z" fill="#727272"/>
</svg>
