<svg width="24" height="24" viewBox="0 0 24 24" fill="none" xmlns="http://www.w3.org/2000/svg">
<path d="M23.375 19.5V1.5C23.375 0.670875 22.6482 0 21.75 0H4.6875V19.125V20.25H21.75V23.25H3.0625C2.16509 23.25 1.4375 22.5784 1.4375 21.75C1.4375 20.9216 2.16509 20.25 3.0625 20.25H3.875V19.125V0H2.25C1.35178 0 0.625 0.670875 0.625 1.5V21.75C0.625 22.9924 1.71659 24 3.0625 24H22.9688C23.1934 24 23.375 23.8324 23.375 23.625C23.375 23.4176 23.1934 23.25 22.9688 23.25H22.5625V20.25C23.011 20.25 23.375 19.914 23.375 19.5ZM8.34375 5.25H13.2188C13.4434 5.25 13.625 5.41762 13.625 5.625C13.625 5.83238 13.4434 6 13.2188 6H8.34375C8.11909 6 7.9375 5.83238 7.9375 5.625C7.9375 5.41762 8.11909 5.25 8.34375 5.25ZM16.0625 10.5H8.34375C8.11909 10.5 7.9375 10.3324 7.9375 10.125C7.9375 9.91763 8.11909 9.75 8.34375 9.75H16.0625C16.2872 9.75 16.4688 9.91763 16.4688 10.125C16.4688 10.3324 16.2872 10.5 16.0625 10.5ZM18.9062 8.25H8.34375C8.11909 8.25 7.9375 8.08237 7.9375 7.875C7.9375 7.66762 8.11909 7.5 8.34375 7.5H18.9062C19.1309 7.5 19.3125 7.66762 19.3125 7.875C19.3125 8.08237 19.1309 8.25 18.9062 8.25Z" fill="white"/>
</svg>
