<svg width="18" height="19" viewBox="0 0 18 19" fill="none" xmlns="http://www.w3.org/2000/svg">
<path d="M14.625 2.75H12.9375V2.1875C12.9375 2.03832 12.8782 1.89524 12.7727 1.78975C12.6673 1.68426 12.5242 1.625 12.375 1.625C12.2258 1.625 12.0827 1.68426 11.9773 1.78975C11.8718 1.89524 11.8125 2.03832 11.8125 2.1875V2.75H6.1875V2.1875C6.1875 2.03832 6.12824 1.89524 6.02275 1.78975C5.91726 1.68426 5.77418 1.625 5.625 1.625C5.47582 1.625 5.33274 1.68426 5.22725 1.78975C5.12176 1.89524 5.0625 2.03832 5.0625 2.1875V2.75H3.375C3.07663 2.75 2.79048 2.86853 2.5795 3.0795C2.36853 3.29048 2.25 3.57663 2.25 3.875V15.125C2.25 15.4234 2.36853 15.7095 2.5795 15.9205C2.79048 16.1315 3.07663 16.25 3.375 16.25H14.625C14.9234 16.25 15.2095 16.1315 15.4205 15.9205C15.6315 15.7095 15.75 15.4234 15.75 15.125V3.875C15.75 3.57663 15.6315 3.29048 15.4205 3.0795C15.2095 2.86853 14.9234 2.75 14.625 2.75ZM11.918 9.90781L8.63438 13.0016C8.58332 13.0516 8.52286 13.091 8.45649 13.1176C8.39011 13.1441 8.31914 13.1573 8.24766 13.1562C8.10357 13.1568 7.9649 13.1013 7.86094 13.0016L6.08203 11.3141C6.02489 11.2642 5.97842 11.2033 5.94541 11.135C5.9124 11.0668 5.89354 10.9925 5.88996 10.9168C5.88637 10.841 5.89814 10.7654 5.92456 10.6943C5.95097 10.6232 5.99149 10.5582 6.04366 10.5032C6.09584 10.4481 6.15861 10.4042 6.22819 10.3741C6.29777 10.3439 6.37273 10.3282 6.44856 10.3277C6.52439 10.3273 6.59953 10.3422 6.66946 10.3715C6.73938 10.4008 6.80265 10.444 6.85547 10.4984L8.24766 11.8203L11.1445 9.09219C11.1977 9.0406 11.2606 9.00015 11.3296 8.97323C11.3985 8.94631 11.4722 8.93345 11.5462 8.93542C11.6203 8.93738 11.6932 8.95413 11.7606 8.98467C11.8281 9.01522 11.8887 9.05895 11.9391 9.11328C12.0415 9.2215 12.0968 9.36595 12.0929 9.51491C12.0889 9.66387 12.026 9.80518 11.918 9.90781ZM14.625 6.125H3.375V3.875H5.0625V4.4375C5.0625 4.58668 5.12176 4.72976 5.22725 4.83525C5.33274 4.94074 5.47582 5 5.625 5C5.77418 5 5.91726 4.94074 6.02275 4.83525C6.12824 4.72976 6.1875 4.58668 6.1875 4.4375V3.875H11.8125V4.4375C11.8125 4.58668 11.8718 4.72976 11.9773 4.83525C12.0827 4.94074 12.2258 5 12.375 5C12.5242 5 12.6673 4.94074 12.7727 4.83525C12.8782 4.72976 12.9375 4.58668 12.9375 4.4375V3.875H14.625V6.125Z" fill="#727272"/>
</svg>
