<svg width="61" height="63" viewBox="0 0 61 63" fill="none" xmlns="http://www.w3.org/2000/svg">
<rect x="0.0751953" y="0.941406" width="60.7855" height="61.5543" rx="16" fill="#FB6D3A"/>
<g clip-path="url(#clip0_619_16165)">
<path d="M26.1265 26.2228C24.6871 26.2228 23.3067 26.8018 22.2888 27.8325C21.271 28.8632 20.6992 30.2611 20.6992 31.7187C20.6992 33.1763 21.271 34.5742 22.2888 35.6049C23.3067 36.6356 24.6871 37.2146 26.1265 37.2146H34.8101C36.2495 37.2146 37.63 36.6356 38.6478 35.6049C39.6656 34.5742 40.2374 33.1763 40.2374 31.7187C40.2374 30.2611 39.6656 28.8632 38.6478 27.8325C37.63 26.8018 36.2495 26.2228 34.8101 26.2228H26.1265ZM26.1265 24.0244H34.8101C36.8253 24.0244 38.7579 24.8351 40.1829 26.278C41.6078 27.721 42.4083 29.6781 42.4083 31.7187C42.4083 33.7594 41.6078 35.7164 40.1829 37.1594C38.7579 38.6024 36.8253 39.413 34.8101 39.413H26.1265C24.1113 39.413 22.1787 38.6024 20.7538 37.1594C19.3288 35.7164 18.5283 33.7594 18.5283 31.7187C18.5283 29.6781 19.3288 27.721 20.7538 26.278C22.1787 24.8351 24.1113 24.0244 26.1265 24.0244ZM26.1265 35.0163C25.2629 35.0163 24.4346 34.6688 23.8239 34.0504C23.2132 33.432 22.8701 32.5933 22.8701 31.7187C22.8701 30.8441 23.2132 30.0054 23.8239 29.387C24.4346 28.7686 25.2629 28.4212 26.1265 28.4212C26.9901 28.4212 27.8184 28.7686 28.4291 29.387C29.0398 30.0054 29.3829 30.8441 29.3829 31.7187C29.3829 32.5933 29.0398 33.432 28.4291 34.0504C27.8184 34.6688 26.9901 35.0163 26.1265 35.0163Z" fill="white"/>
</g>
<defs>
<clipPath id="clip0_619_16165">
<rect width="26.0509" height="26.3804" fill="white" transform="translate(17.4424 18.5283)"/>
</clipPath>
</defs>
</svg>
