<svg width="18" height="19" viewBox="0 0 18 19" fill="none" xmlns="http://www.w3.org/2000/svg">
<path d="M1.6875 2.75C0.755859 2.75 0 3.50586 0 4.4375C0 4.96836 0.249609 5.46758 0.675 5.7875L8.325 11.525C8.72578 11.8238 9.27422 11.8238 9.675 11.525L17.325 5.7875C17.7504 5.46758 18 4.96836 18 4.4375C18 3.50586 17.2441 2.75 16.3125 2.75H1.6875ZM0 6.6875V14C0 15.241 1.00898 16.25 2.25 16.25H15.75C16.991 16.25 18 15.241 18 14V6.6875L10.35 12.425C9.54844 13.0262 8.45156 13.0262 7.65 12.425L0 6.6875Z" fill="#727272"/>
</svg>
