<svg width="18" height="19" viewBox="0 0 18 19" fill="none" xmlns="http://www.w3.org/2000/svg">
<path d="M5.25 14C4 14 2.9375 13.5625 2.0625 12.6875C1.1875 11.8125 0.75 10.75 0.75 9.5C0.75 8.25 1.1875 7.1875 2.0625 6.3125C2.9375 5.4375 4 5 5.25 5C6.2625 5 7.147 5.28425 7.9035 5.85275C8.6595 6.42175 9.1875 7.1375 9.4875 8H17.25V11H15.75V14H12.75V11H9.4875C9.1875 11.8625 8.6595 12.5783 7.9035 13.1473C7.147 13.7158 6.2625 14 5.25 14ZM5.25 11C5.6625 11 6.0155 10.853 6.309 10.559C6.603 10.2655 6.75 9.9125 6.75 9.5C6.75 9.0875 6.603 8.73425 6.309 8.44025C6.0155 8.14675 5.6625 8 5.25 8C4.8375 8 4.4845 8.14675 4.191 8.44025C3.897 8.73425 3.75 9.0875 3.75 9.5C3.75 9.9125 3.897 10.2655 4.191 10.559C4.4845 10.853 4.8375 11 5.25 11Z" fill="#727272"/>
</svg>
