<svg width="61" height="63" viewBox="0 0 61 63" fill="none" xmlns="http://www.w3.org/2000/svg">
<rect x="0.0751953" y="0.672852" width="60.7855" height="61.5543" rx="16" fill="#FB6D3A"/>
<path d="M40.2369 20.458H20.6987C20.4109 20.458 20.1348 20.5738 19.9312 20.78C19.7276 20.9861 19.6133 21.2657 19.6133 21.5572V41.3425C19.6133 41.634 19.7276 41.9136 19.9312 42.1198C20.1348 42.3259 20.4109 42.4417 20.6987 42.4417H40.2369C40.5248 42.4417 40.8009 42.3259 41.0045 42.1198C41.208 41.9136 41.3224 41.634 41.3224 41.3425V21.5572C41.3224 21.2657 41.208 20.9861 41.0045 20.78C40.8009 20.5738 40.5248 20.458 40.2369 20.458ZM26.126 40.2433H21.7842V35.8466H26.126V40.2433ZM26.126 33.6482H21.7842V29.2515H26.126V33.6482ZM26.126 27.0531H21.7842V22.6564H26.126V27.0531ZM32.6387 40.2433H28.2969V35.8466H32.6387V40.2433ZM32.6387 33.6482H28.2969V29.2515H32.6387V33.6482ZM32.6387 27.0531H28.2969V22.6564H32.6387V27.0531ZM39.1515 40.2433H34.8096V35.8466H39.1515V40.2433ZM39.1515 33.6482H34.8096V29.2515H39.1515V33.6482ZM39.1515 27.0531H34.8096V22.6564H39.1515V27.0531Z" fill="white"/>
</svg>
