<svg width="60" height="60" viewBox="0 0 60 60" fill="none" xmlns="http://www.w3.org/2000/svg">
<rect width="60" height="60" rx="20" fill="#FB6D3A"/>
<path d="M42.5001 25.333C42.496 24.8858 42.3635 24.4493 42.1184 24.0754C41.8733 23.7014 41.5259 23.4057 41.1176 23.2235C40.7093 23.0413 40.2572 22.9803 39.8152 23.0476C39.3732 23.115 38.9598 23.308 38.6243 23.6036C38.2888 23.8992 38.0453 24.2849 37.9228 24.7149C37.8003 25.145 37.8039 25.6011 37.9332 26.0291C38.0625 26.4572 38.3121 26.839 38.6522 27.1293C38.9923 27.4195 39.4087 27.6059 39.8517 27.6663C40.0969 28.3429 40.1999 29.0628 40.1545 29.7811C40.1091 30.4993 39.9162 31.2005 39.5878 31.8409C39.2594 32.4813 38.8026 33.0471 38.2458 33.5031C37.689 33.9591 37.0443 34.2955 36.3517 34.4913C36.044 33.7831 35.5108 33.1965 34.8351 32.823C35.802 31.6233 36.4099 30.1745 36.5884 28.644C36.7669 27.1135 36.5088 25.5637 35.8439 24.1737C35.1789 22.7837 34.1343 21.6102 32.8307 20.7887C31.527 19.9672 30.0176 19.5312 28.4767 19.5312C26.9359 19.5312 25.4264 19.9672 24.1228 20.7887C22.8192 21.6102 21.7745 22.7837 21.1096 24.1737C20.4447 25.5637 20.1865 27.1135 20.365 28.644C20.5436 30.1745 21.1514 31.6233 22.1184 32.823C21.5829 33.1239 21.136 33.5605 20.8227 34.0889C20.5094 34.6172 20.3406 35.2187 20.3334 35.833V36.9996C20.3334 37.9279 20.7021 38.8181 21.3585 39.4745C22.0149 40.1309 22.9051 40.4996 23.8334 40.4996H33.1667C34.095 40.4996 34.9852 40.1309 35.6416 39.4745C36.298 38.8181 36.6667 37.9279 36.6667 36.9996V36.778C37.7139 36.5334 38.6967 36.0679 39.5494 35.4127C40.4021 34.7575 41.1049 33.9277 41.6109 32.9788C42.1168 32.0299 42.4141 30.9838 42.483 29.9107C42.5518 28.8375 42.3906 27.7621 42.0101 26.7563C42.3262 26.349 42.4985 25.8485 42.5001 25.333ZM34.3334 36.9996C34.3334 37.309 34.2105 37.6058 33.9917 37.8246C33.7729 38.0434 33.4761 38.1663 33.1667 38.1663H23.8334C23.524 38.1663 23.2272 38.0434 23.0084 37.8246C22.7896 37.6058 22.6667 37.309 22.6667 36.9996V35.833C22.6667 35.5235 22.7896 35.2268 23.0084 35.008C23.2272 34.7892 23.524 34.6663 23.8334 34.6663H24.3117C25.5753 35.43 27.0236 35.8338 28.5001 35.8338C29.9765 35.8338 31.4248 35.43 32.6884 34.6663H33.1667C33.4761 34.6663 33.7729 34.7892 33.9917 35.008C34.2105 35.2268 34.3334 35.5235 34.3334 35.833V36.9996ZM28.5001 33.4996C27.3463 33.4996 26.2185 33.1575 25.2592 32.5165C24.3 31.8756 23.5523 30.9645 23.1108 29.8986C22.6693 28.8327 22.5537 27.6598 22.7788 26.5283C23.0039 25.3967 23.5595 24.3573 24.3753 23.5415C25.1911 22.7257 26.2305 22.1701 27.362 21.945C28.4936 21.72 29.6665 21.8355 30.7324 22.277C31.7983 22.7185 32.7093 23.4662 33.3503 24.4255C33.9913 25.3848 34.3334 26.5126 34.3334 27.6663C34.3334 28.4323 34.1825 29.1909 33.8894 29.8986C33.5962 30.6063 33.1665 31.2494 32.6249 31.7911C32.0832 32.3328 31.4401 32.7624 30.7324 33.0556C30.0247 33.3487 29.2661 33.4996 28.5001 33.4996ZM28.5001 26.4996C28.2693 26.4996 28.0438 26.568 27.8519 26.6962C27.66 26.8244 27.5105 27.0066 27.4222 27.2198C27.3339 27.433 27.3108 27.6676 27.3558 27.8939C27.4008 28.1202 27.5119 28.3281 27.6751 28.4912C27.8383 28.6544 28.0461 28.7655 28.2725 28.8105C28.4988 28.8556 28.7333 28.8325 28.9465 28.7442C29.1597 28.6558 29.3419 28.5063 29.4701 28.3145C29.5983 28.1226 29.6667 27.897 29.6667 27.6663C29.6667 27.3569 29.5438 27.0601 29.325 26.8413C29.1062 26.6225 28.8095 26.4996 28.5001 26.4996Z" fill="white"/>
</svg>
