<svg width="28" height="28" viewBox="0 0 28 28" fill="none" xmlns="http://www.w3.org/2000/svg">
<path d="M18.3283 14.8286C19.4721 13.9287 20.307 12.6946 20.7168 11.2982C21.1266 9.90168 21.0909 8.4122 20.6147 7.03694C20.1386 5.66168 19.2456 4.46902 18.0601 3.62489C16.8745 2.78077 15.4554 2.32715 14 2.32715C12.5446 2.32715 11.1255 2.78077 9.93991 3.62489C8.75437 4.46902 7.8614 5.66168 7.38524 7.03694C6.90909 8.4122 6.87343 9.90168 7.28322 11.2982C7.69301 12.6946 8.52787 13.9287 9.67166 14.8286C7.71175 15.6138 6.00166 16.9161 4.7237 18.5968C3.44574 20.2775 2.64782 22.2734 2.415 24.3719C2.39814 24.5251 2.41163 24.6801 2.45469 24.8281C2.49775 24.9761 2.56954 25.1142 2.66596 25.2344C2.86068 25.4773 3.14391 25.6329 3.45333 25.6669C3.76275 25.7009 4.07302 25.6107 4.31588 25.4159C4.55874 25.2212 4.71429 24.938 4.74833 24.6286C5.00451 22.348 6.09196 20.2417 7.80292 18.7122C9.51387 17.1826 11.7284 16.3371 14.0233 16.3371C16.3183 16.3371 18.5328 17.1826 20.2437 18.7122C21.9547 20.2417 23.0421 22.348 23.2983 24.6286C23.33 24.9152 23.4668 25.18 23.6823 25.3717C23.8977 25.5635 24.1766 25.6686 24.465 25.6669H24.5933C24.8992 25.6317 25.1787 25.4771 25.371 25.2367C25.5633 24.9963 25.6528 24.6897 25.62 24.3836C25.3861 22.2791 24.5838 20.278 23.2993 18.5948C22.0148 16.9116 20.2964 15.6096 18.3283 14.8286ZM14 14.0002C13.077 14.0002 12.1748 13.7265 11.4073 13.2138C10.6399 12.701 10.0418 11.9721 9.68856 11.1194C9.33535 10.2667 9.24293 9.32838 9.423 8.42314C9.60306 7.51789 10.0475 6.68637 10.7002 6.03373C11.3528 5.38108 12.1843 4.93663 13.0896 4.75656C13.9948 4.5765 14.9331 4.66891 15.7859 5.02212C16.6386 5.37533 17.3674 5.97347 17.8802 6.7409C18.393 7.50833 18.6667 8.41058 18.6667 9.33356C18.6667 10.5712 18.175 11.7582 17.2998 12.6334C16.4247 13.5086 15.2377 14.0002 14 14.0002Z" fill="#181B1A"/>
</svg>
