<svg width="27" height="25" viewBox="0 0 27 25" fill="none" xmlns="http://www.w3.org/2000/svg">
<path d="M6.20007 13.1807H1.40007C1.08181 13.1807 0.776589 13.2956 0.551545 13.5002C0.326501 13.7047 0.200073 13.9822 0.200073 14.2715V22.998C0.200073 23.2873 0.326501 23.5648 0.551545 23.7694C0.776589 23.9739 1.08181 24.0889 1.40007 24.0889H6.20007C6.51833 24.0889 6.82356 23.9739 7.0486 23.7694C7.27364 23.5648 7.40007 23.2873 7.40007 22.998V14.2715C7.40007 13.9822 7.27364 13.7047 7.0486 13.5002C6.82356 13.2956 6.51833 13.1807 6.20007 13.1807ZM5.00007 21.9072H2.60007V15.3623H5.00007V21.9072ZM25.4001 8.81738H20.6001C20.2818 8.81738 19.9766 8.93231 19.7515 9.13688C19.5265 9.34144 19.4001 9.6189 19.4001 9.9082V22.998C19.4001 23.2873 19.5265 23.5648 19.7515 23.7694C19.9766 23.9739 20.2818 24.0889 20.6001 24.0889H25.4001C25.7183 24.0889 26.0236 23.9739 26.2486 23.7694C26.4736 23.5648 26.6001 23.2873 26.6001 22.998V9.9082C26.6001 9.6189 26.4736 9.34144 26.2486 9.13688C26.0236 8.93231 25.7183 8.81738 25.4001 8.81738ZM24.2001 21.9072H21.8001V10.999H24.2001V21.9072ZM15.8001 0.0908203H11.0001C10.6818 0.0908203 10.3766 0.205746 10.1515 0.410314C9.9265 0.614883 9.80007 0.892337 9.80007 1.18164V22.998C9.80007 23.2873 9.9265 23.5648 10.1515 23.7694C10.3766 23.9739 10.6818 24.0889 11.0001 24.0889H15.8001C16.1183 24.0889 16.4236 23.9739 16.6486 23.7694C16.8736 23.5648 17.0001 23.2873 17.0001 22.998V1.18164C17.0001 0.892337 16.8736 0.614883 16.6486 0.410314C16.4236 0.205746 16.1183 0.0908203 15.8001 0.0908203ZM14.6001 21.9072H12.2001V2.27246H14.6001V21.9072Z" fill="white"/>
</svg>
